<?xml version="1.0" encoding="UTF-8"?>
<svg xmlns="http://www.w3.org/2000/svg" xmlns:xlink="http://www.w3.org/1999/xlink" width="48pt" height="48pt" viewBox="0 0 48 48" version="1.1">
<g id="surface4205160">
<path style=" stroke:none;fill-rule:nonzero;fill:rgb(27.058824%,35.294118%,39.215686%);fill-opacity:1;" d="M 40.398438 19 C 35.101562 19 32.199219 24 32 24 C 31.800781 24 28.398438 19 23 19 C 17.601562 19 16.398438 24.101562 16.199219 24.101562 C 16 24.101562 14.5 20 9.898438 20 C 6.101562 20 5.300781 21.601562 5.300781 21.601562 C 5.300781 21.601562 5.699219 20.300781 6.300781 17 L 15 17 L 15 13 L 3 13 L 0.5 25 L 4.800781 25 C 4.800781 25 5.699219 23.300781 8.199219 23.300781 C 10.699219 23.300781 12 25.199219 12 27.300781 C 12 29.398438 10.5 31.800781 8.199219 31.800781 C 5.898438 31.800781 4.5 29.398438 4.5 28 C 2.601562 28 0 28 0 28 C 0 29.199219 1 35 8.199219 35 C 14.101562 35 16.199219 30.898438 16.199219 30.398438 C 16.199219 30.800781 18.199219 35 23 35 C 28.601562 35 31.699219 30.398438 32 30.398438 C 32.300781 30.398438 35.300781 35 40.398438 35 C 45.5 35 48 30.699219 48 27 C 48 23.300781 45.699219 19 40.398438 19 Z M 44 27 C 44 27.898438 43.601562 30.699219 40.398438 30.699219 C 37.5 30.699219 34.5 27.101562 34.5 27 C 34.5 27 37.5 23.398438 40.398438 23.398438 C 43.5 23.398438 44 26.101562 44 27 Z M 20 27 C 20 26.101562 20.300781 23.398438 23.601562 23.398438 C 26.5 23.398438 29.5 27 29.601562 27 C 29.601562 27 26.5 30.699219 23.601562 30.699219 C 20.398438 30.699219 20 27.898438 20 27 Z M 20 27 "/>
</g>
</svg>
